<mxfile host="app.diagrams.net" agent="Mozilla/5.0 (Windows NT 10.0; Win64; x64) AppleWebKit/537.36 (KHTML, like Gecko) Chrome/131.0.0.0 Safari/537.36" version="25.0.3">
  <diagram name="Page-1" id="UClbIyi9O4CG2FTvwViy">
    <mxGraphModel dx="5980" dy="3800" grid="1" gridSize="10" guides="1" tooltips="1" connect="1" arrows="1" fold="1" page="0" pageScale="1" pageWidth="850" pageHeight="1100" background="#CCCCCC" math="0" shadow="0">
      <root>
        <mxCell id="0" />
        <mxCell id="1" parent="0" />
        <mxCell id="_IsixJLLyAHFEI_MvOjn-19" value="" style="rounded=0;whiteSpace=wrap;html=1;fontFamily=Helvetica;fontSize=11;labelBackgroundColor=#241908;fillColor=#4F3712;strokeColor=none;" vertex="1" parent="1">
          <mxGeometry x="-620" y="-1025" width="1350" height="650" as="geometry" />
        </mxCell>
        <mxCell id="_IsixJLLyAHFEI_MvOjn-3" value="&lt;h1&gt;&lt;font style=&quot;font-size: 25px;&quot;&gt;Virtual Device 3&lt;/font&gt;&lt;/h1&gt;" style="rounded=1;whiteSpace=wrap;html=1;fillColor=#7EA6E0;gradientColor=none;" vertex="1" parent="1">
          <mxGeometry x="-540" y="-620" width="240" height="100" as="geometry" />
        </mxCell>
        <mxCell id="_IsixJLLyAHFEI_MvOjn-4" value="&lt;h1&gt;&lt;font style=&quot;font-size: 25px;&quot;&gt;Virtual Device 3&lt;/font&gt;&lt;/h1&gt;" style="rounded=1;whiteSpace=wrap;html=1;fillColor=#7EA6E0;gradientColor=none;" vertex="1" parent="1">
          <mxGeometry x="-540" y="-880" width="240" height="100" as="geometry" />
        </mxCell>
        <mxCell id="_IsixJLLyAHFEI_MvOjn-9" style="edgeStyle=orthogonalEdgeStyle;shape=connector;rounded=0;orthogonalLoop=1;jettySize=auto;html=1;entryX=0;entryY=0.5;entryDx=0;entryDy=0;strokeColor=#FCFCFC;strokeWidth=5;align=center;verticalAlign=middle;fontFamily=Helvetica;fontSize=11;fontColor=default;labelBackgroundColor=#CCCCCC;endArrow=classic;dashed=1;" edge="1" parent="1" source="_IsixJLLyAHFEI_MvOjn-5" target="_IsixJLLyAHFEI_MvOjn-6">
          <mxGeometry relative="1" as="geometry" />
        </mxCell>
        <mxCell id="_IsixJLLyAHFEI_MvOjn-5" value="&lt;h1&gt;&lt;font style=&quot;font-size: 25px;&quot;&gt;Virtual Device 3&lt;/font&gt;&lt;/h1&gt;" style="rounded=1;whiteSpace=wrap;html=1;fillColor=#7EA6E0;gradientColor=none;" vertex="1" parent="1">
          <mxGeometry x="-540" y="-750" width="240" height="100" as="geometry" />
        </mxCell>
        <mxCell id="_IsixJLLyAHFEI_MvOjn-13" style="edgeStyle=orthogonalEdgeStyle;shape=connector;rounded=0;orthogonalLoop=1;jettySize=auto;html=1;strokeColor=#FCFCFC;strokeWidth=5;align=center;verticalAlign=middle;fontFamily=Helvetica;fontSize=11;fontColor=default;labelBackgroundColor=#CCCCCC;endArrow=classic;dashed=1;" edge="1" parent="1" source="_IsixJLLyAHFEI_MvOjn-6" target="_IsixJLLyAHFEI_MvOjn-12">
          <mxGeometry relative="1" as="geometry" />
        </mxCell>
        <mxCell id="_IsixJLLyAHFEI_MvOjn-6" value="&lt;h1&gt;&lt;span style=&quot;font-size: 25px;&quot;&gt;MQTT Broker&lt;/span&gt;&lt;/h1&gt;" style="rounded=1;whiteSpace=wrap;html=1;fillColor=#7EA6E0;gradientColor=none;" vertex="1" parent="1">
          <mxGeometry x="-90" y="-880" width="240" height="360" as="geometry" />
        </mxCell>
        <mxCell id="_IsixJLLyAHFEI_MvOjn-7" style="edgeStyle=orthogonalEdgeStyle;rounded=0;orthogonalLoop=1;jettySize=auto;html=1;entryX=0.01;entryY=0.862;entryDx=0;entryDy=0;entryPerimeter=0;strokeWidth=5;strokeColor=#FCFCFC;labelBackgroundColor=#CCCCCC;dashed=1;" edge="1" parent="1" source="_IsixJLLyAHFEI_MvOjn-3" target="_IsixJLLyAHFEI_MvOjn-6">
          <mxGeometry relative="1" as="geometry" />
        </mxCell>
        <mxCell id="_IsixJLLyAHFEI_MvOjn-11" style="edgeStyle=orthogonalEdgeStyle;shape=connector;rounded=0;orthogonalLoop=1;jettySize=auto;html=1;entryX=0.004;entryY=0.14;entryDx=0;entryDy=0;entryPerimeter=0;strokeColor=#FCFCFC;strokeWidth=5;align=center;verticalAlign=middle;fontFamily=Helvetica;fontSize=11;fontColor=default;labelBackgroundColor=#CCCCCC;endArrow=classic;dashed=1;" edge="1" parent="1" source="_IsixJLLyAHFEI_MvOjn-4" target="_IsixJLLyAHFEI_MvOjn-6">
          <mxGeometry relative="1" as="geometry" />
        </mxCell>
        <mxCell id="_IsixJLLyAHFEI_MvOjn-17" style="edgeStyle=orthogonalEdgeStyle;shape=connector;rounded=0;orthogonalLoop=1;jettySize=auto;html=1;strokeColor=#FCFCFC;strokeWidth=5;align=center;verticalAlign=middle;fontFamily=Helvetica;fontSize=11;fontColor=default;labelBackgroundColor=default;endArrow=classic;" edge="1" parent="1" source="_IsixJLLyAHFEI_MvOjn-12" target="_IsixJLLyAHFEI_MvOjn-14">
          <mxGeometry relative="1" as="geometry" />
        </mxCell>
        <mxCell id="_IsixJLLyAHFEI_MvOjn-12" value="&lt;h1&gt;&lt;span style=&quot;font-size: 25px;&quot;&gt;DB URL&lt;/span&gt;&lt;/h1&gt;" style="rounded=1;whiteSpace=wrap;html=1;fillColor=#7EA6E0;gradientColor=none;" vertex="1" parent="1">
          <mxGeometry x="330" y="-880" width="240" height="360" as="geometry" />
        </mxCell>
        <mxCell id="_IsixJLLyAHFEI_MvOjn-14" value="&lt;font style=&quot;font-size: 30px;&quot;&gt;MongoDB&lt;/font&gt;" style="shape=cylinder3;whiteSpace=wrap;html=1;boundedLbl=1;backgroundOutline=1;size=15;fontFamily=Helvetica;fontSize=11;fontColor=default;labelBackgroundColor=none;fillColor=#99CCFF;" vertex="1" parent="1">
          <mxGeometry x="930" y="-887.5" width="281.25" height="375" as="geometry" />
        </mxCell>
        <mxCell id="_IsixJLLyAHFEI_MvOjn-15" value="&lt;font style=&quot;font-size: 30px;&quot;&gt;&lt;b&gt;Virtual Devices&lt;/b&gt;&lt;/font&gt;" style="text;html=1;align=center;verticalAlign=middle;whiteSpace=wrap;rounded=0;fontFamily=Helvetica;fontSize=11;fontColor=default;labelBackgroundColor=none;" vertex="1" parent="1">
          <mxGeometry x="-530" y="-960" width="220" height="30" as="geometry" />
        </mxCell>
        <mxCell id="_IsixJLLyAHFEI_MvOjn-16" value="&lt;span style=&quot;font-size: 30px;&quot;&gt;&lt;b&gt;Brokers&lt;/b&gt;&lt;/span&gt;" style="text;html=1;align=center;verticalAlign=middle;whiteSpace=wrap;rounded=0;fontFamily=Helvetica;fontSize=11;fontColor=default;labelBackgroundColor=none;" vertex="1" parent="1">
          <mxGeometry x="-80" y="-960" width="220" height="30" as="geometry" />
        </mxCell>
        <mxCell id="_IsixJLLyAHFEI_MvOjn-20" value="&lt;span style=&quot;font-size: 30px;&quot;&gt;&lt;b&gt;Databases&lt;/b&gt;&lt;/span&gt;" style="text;html=1;align=center;verticalAlign=middle;whiteSpace=wrap;rounded=0;fontFamily=Helvetica;fontSize=11;fontColor=default;labelBackgroundColor=none;" vertex="1" parent="1">
          <mxGeometry x="340" y="-960" width="220" height="30" as="geometry" />
        </mxCell>
        <mxCell id="_IsixJLLyAHFEI_MvOjn-21" value="&lt;font color=&quot;#ffffff&quot; style=&quot;font-size: 40px;&quot;&gt;&lt;b style=&quot;&quot;&gt;Dataniz&lt;/b&gt;&lt;/font&gt;" style="text;html=1;align=center;verticalAlign=middle;whiteSpace=wrap;rounded=0;fontFamily=Helvetica;fontSize=11;fontColor=default;labelBackgroundColor=none;" vertex="1" parent="1">
          <mxGeometry x="-80" y="-1100" width="220" height="30" as="geometry" />
        </mxCell>
        <mxCell id="_IsixJLLyAHFEI_MvOjn-22" value="" style="rounded=0;whiteSpace=wrap;html=1;fontFamily=Helvetica;fontSize=11;labelBackgroundColor=#241908;fillColor=#003300;strokeColor=none;" vertex="1" parent="1">
          <mxGeometry x="-620" y="-230" width="1350" height="470" as="geometry" />
        </mxCell>
        <mxCell id="_IsixJLLyAHFEI_MvOjn-23" value="&lt;font color=&quot;#ffffff&quot; style=&quot;font-size: 40px;&quot;&gt;&lt;b style=&quot;&quot;&gt;Google Cloud&lt;/b&gt;&lt;/font&gt;" style="text;html=1;align=center;verticalAlign=middle;whiteSpace=wrap;rounded=0;fontFamily=Helvetica;fontSize=11;fontColor=default;labelBackgroundColor=none;" vertex="1" parent="1">
          <mxGeometry x="-140" y="-290" width="340" height="30" as="geometry" />
        </mxCell>
        <mxCell id="_IsixJLLyAHFEI_MvOjn-25" style="edgeStyle=orthogonalEdgeStyle;shape=connector;rounded=0;orthogonalLoop=1;jettySize=auto;html=1;strokeColor=#FCFCFC;strokeWidth=5;align=center;verticalAlign=middle;fontFamily=Helvetica;fontSize=11;fontColor=default;labelBackgroundColor=default;endArrow=classic;entryX=0;entryY=0.5;entryDx=0;entryDy=0;" edge="1" parent="1" target="_IsixJLLyAHFEI_MvOjn-31">
          <mxGeometry relative="1" as="geometry">
            <mxPoint x="-870" y="4.17" as="sourcePoint" />
            <mxPoint x="-635" y="4.17" as="targetPoint" />
            <Array as="points" />
          </mxGeometry>
        </mxCell>
        <mxCell id="_IsixJLLyAHFEI_MvOjn-26" value="&lt;font style=&quot;font-size: 30px;&quot;&gt;&lt;b&gt;Queries&lt;/b&gt;&lt;/font&gt;" style="text;html=1;align=center;verticalAlign=middle;whiteSpace=wrap;rounded=0;fontFamily=Helvetica;fontSize=11;fontColor=default;labelBackgroundColor=none;" vertex="1" parent="1">
          <mxGeometry x="-870" y="-40" width="220" height="30" as="geometry" />
        </mxCell>
        <mxCell id="_IsixJLLyAHFEI_MvOjn-27" value="" style="shape=actor;whiteSpace=wrap;html=1;fontFamily=Helvetica;fontSize=11;fontColor=default;labelBackgroundColor=default;fillColor=#004C99;strokeColor=none;" vertex="1" parent="1">
          <mxGeometry x="-1060" y="-130" width="166.67" height="210" as="geometry" />
        </mxCell>
        <mxCell id="_IsixJLLyAHFEI_MvOjn-28" value="" style="shape=image;verticalLabelPosition=bottom;labelBackgroundColor=default;verticalAlign=top;aspect=fixed;imageAspect=0;image=https://static-00.iconduck.com/assets.00/google-cloud-icon-2048x1646-7admxejz.png;" vertex="1" parent="1">
          <mxGeometry x="-600" y="-210" width="112.03" height="90" as="geometry" />
        </mxCell>
        <mxCell id="_IsixJLLyAHFEI_MvOjn-35" style="edgeStyle=orthogonalEdgeStyle;shape=connector;rounded=0;orthogonalLoop=1;jettySize=auto;html=1;strokeColor=#FCFCFC;strokeWidth=5;align=center;verticalAlign=middle;fontFamily=Helvetica;fontSize=11;fontColor=default;labelBackgroundColor=default;endArrow=classic;entryX=0;entryY=0.5;entryDx=0;entryDy=0;" edge="1" parent="1" source="_IsixJLLyAHFEI_MvOjn-31" target="_IsixJLLyAHFEI_MvOjn-37">
          <mxGeometry relative="1" as="geometry">
            <mxPoint x="180" y="5" as="targetPoint" />
          </mxGeometry>
        </mxCell>
        <mxCell id="_IsixJLLyAHFEI_MvOjn-31" value="&lt;font style=&quot;font-size: 30px;&quot;&gt;TCP Client&lt;/font&gt;" style="ellipse;whiteSpace=wrap;html=1;aspect=fixed;fontFamily=Helvetica;fontSize=11;fontColor=#000000;labelBackgroundColor=none;fillColor=#fa6800;strokeColor=#C73500;" vertex="1" parent="1">
          <mxGeometry x="-357.5" y="-103.75" width="217.5" height="217.5" as="geometry" />
        </mxCell>
        <mxCell id="_IsixJLLyAHFEI_MvOjn-36" style="edgeStyle=orthogonalEdgeStyle;shape=connector;rounded=0;orthogonalLoop=1;jettySize=auto;html=1;entryX=0.5;entryY=1;entryDx=0;entryDy=0;entryPerimeter=0;strokeColor=#FCFCFC;strokeWidth=5;align=center;verticalAlign=middle;fontFamily=Helvetica;fontSize=11;fontColor=default;labelBackgroundColor=default;endArrow=classic;" edge="1" parent="1" target="_IsixJLLyAHFEI_MvOjn-14">
          <mxGeometry relative="1" as="geometry">
            <mxPoint x="495" y="5" as="sourcePoint" />
          </mxGeometry>
        </mxCell>
        <mxCell id="_IsixJLLyAHFEI_MvOjn-37" value="&lt;font style=&quot;font-size: 30px;&quot;&gt;TCP Server&lt;/font&gt;" style="ellipse;whiteSpace=wrap;html=1;aspect=fixed;fontFamily=Helvetica;fontSize=11;fontColor=#000000;labelBackgroundColor=none;fillColor=#fa6800;strokeColor=#C73500;" vertex="1" parent="1">
          <mxGeometry x="290" y="-103.75" width="217.5" height="217.5" as="geometry" />
        </mxCell>
      </root>
    </mxGraphModel>
  </diagram>
</mxfile>
